REM DIRINDEX 1\2,1\3,1\4
REM DIRNAME cjc105,folder01,folder02,folder03
TITLE ""
FILE "DISC3Track43.mp3" MP3
  TRACK 01 AUDIO
    TITLE "0:"
    INDEX 01 00:00:00
  TRACK 02 AUDIO
    TITLE "4:cjc105_6804"
    INDEX 01 00:00:15
  TRACK 03 AUDIO
    TITLE "0:"
    INDEX 01 00:03:04
  TRACK 04 AUDIO
    TITLE "2:cjc105_6805"
    INDEX 01 00:03:49
  TRACK 05 AUDIO
    TITLE "3:cjc105_6806"
    INDEX 01 00:05:16
  TRACK 06 AUDIO
    TITLE "0:"
    INDEX 01 00:06:43
  TRACK 07 AUDIO
    TITLE "2:cjc105_6807"
    INDEX 01 00:06:63
  TRACK 08 AUDIO
    TITLE "3:cjc105_6808"
    INDEX 01 00:08:11
  TRACK 09 AUDIO
    TITLE "0:"
    INDEX 01 00:09:12
  TRACK 10 AUDIO
    TITLE "2:cjc105_6809"
    INDEX 01 00:09:36
  TRACK 11 AUDIO
    TITLE "3:cjc105_6810"
    INDEX 01 00:10:29
  TRACK 12 AUDIO
    TITLE "0:"
    INDEX 01 00:11:42
  TRACK 13 AUDIO
    TITLE "2:cjc105_6811"
    INDEX 01 00:11:60
  TRACK 14 AUDIO
    TITLE "3:cjc105_6812"
    INDEX 01 00:13:33
  TRACK 15 AUDIO
    TITLE "0:"
    INDEX 01 00:14:64
  TRACK 16 AUDIO
    TITLE "2:cjc105_6813"
    INDEX 01 00:15:05
  TRACK 17 AUDIO
    TITLE "3:cjc105_6814"
    INDEX 01 00:15:72
  TRACK 18 AUDIO
    TITLE "0:"
    INDEX 01 00:16:57
  TRACK 19 AUDIO
    TITLE "2:cjc105_6815"
    INDEX 01 00:17:04
  TRACK 20 AUDIO
    TITLE "3:cjc105_6816"
    INDEX 01 00:18:41
  TRACK 21 AUDIO
    TITLE "0:"
    INDEX 01 00:20:06
  TRACK 22 AUDIO
    TITLE "2:cjc105_6817"
    INDEX 01 00:20:28
  TRACK 23 AUDIO
    TITLE "3:cjc105_6818"
    INDEX 01 00:22:19
  TRACK 24 AUDIO
    TITLE "0:"
    INDEX 01 00:23:57
  TRACK 25 AUDIO
    TITLE "2:cjc105_6819"
    INDEX 01 00:24:02
  TRACK 26 AUDIO
    TITLE "3:cjc105_6820"
    INDEX 01 00:25:13
  TRACK 27 AUDIO
    TITLE "0:"
    INDEX 01 00:25:72
  TRACK 28 AUDIO
    TITLE "2:cjc105_6821"
    INDEX 01 00:26:20
  TRACK 29 AUDIO
    TITLE "3:cjc105_6822"
    INDEX 01 00:28:21
  TRACK 30 AUDIO
    TITLE "0:"
    INDEX 01 00:30:12
  TRACK 31 AUDIO
    TITLE "2:cjc105_6823"
    INDEX 01 00:30:34
  TRACK 32 AUDIO
    TITLE "3:cjc105_6824"
    INDEX 01 00:31:35
  TRACK 33 AUDIO
    TITLE "0:"
    INDEX 01 00:32:33
  TRACK 34 AUDIO
    TITLE "2:cjc105_6825"
    INDEX 01 00:32:56
  TRACK 35 AUDIO
    TITLE "3:cjc105_6826"
    INDEX 01 00:33:56
  TRACK 36 AUDIO
    TITLE "0:"
    INDEX 01 00:34:57
  TRACK 37 AUDIO
    TITLE "2:cjc105_6827"
    INDEX 01 00:35:04
  TRACK 38 AUDIO
    TITLE "3:cjc105_6828"
    INDEX 01 00:36:68
  TRACK 39 AUDIO
    TITLE "0:"
    INDEX 01 00:38:63
  TRACK 40 AUDIO
    TITLE "2:cjc105_6829"
    INDEX 01 00:39:09
  TRACK 41 AUDIO
    TITLE "3:cjc105_6830"
    INDEX 01 00:40:26
  TRACK 42 AUDIO
    TITLE "0:"
    INDEX 01 00:41:30
  TRACK 43 AUDIO
    TITLE "2:cjc105_6831"
    INDEX 01 00:41:53
  TRACK 44 AUDIO
    TITLE "3:cjc105_6832"
    INDEX 01 00:42:68
  TRACK 45 AUDIO
    TITLE "0:"
    INDEX 01 00:43:72
  TRACK 46 AUDIO
    TITLE "2:cjc105_6833"
    INDEX 01 00:44:18
  TRACK 47 AUDIO
    TITLE "3:cjc105_6834"
    INDEX 01 00:45:22
  TRACK 48 AUDIO
    TITLE "0:"
    INDEX 01 00:46:13
  TRACK 49 AUDIO
    TITLE "2:cjc105_6835"
    INDEX 01 00:46:29
  TRACK 50 AUDIO
    TITLE "3:cjc105_6836"
    INDEX 01 00:48:08
  TRACK 51 AUDIO
    TITLE "0:"
    INDEX 01 00:49:25
  TRACK 52 AUDIO
    TITLE "2:cjc105_6837"
    INDEX 01 00:49:47
  TRACK 53 AUDIO
    TITLE "3:cjc105_6838"
    INDEX 01 00:51:15
  TRACK 54 AUDIO
    TITLE "0:"
    INDEX 01 00:52:24
  TRACK 55 AUDIO
    TITLE "2:cjc105_6839"
    INDEX 01 00:52:43
  TRACK 56 AUDIO
    TITLE "3:cjc105_6840"
    INDEX 01 00:54:11
  TRACK 57 AUDIO
    TITLE "0:"
    INDEX 01 00:55:30
  TRACK 58 AUDIO
    TITLE "2:cjc105_6841"
    INDEX 01 00:55:48
  TRACK 59 AUDIO
    TITLE "3:cjc105_6842"
    INDEX 01 00:56:57
  TRACK 60 AUDIO
    TITLE "0:"
    INDEX 01 00:58:03
  TRACK 61 AUDIO
    TITLE "2:cjc105_6843"
    INDEX 01 00:58:22
  TRACK 62 AUDIO
    TITLE "3:cjc105_6844"
    INDEX 01 00:59:34
  TRACK 63 AUDIO
    TITLE "0:"
    INDEX 01 01:00:43
  TRACK 64 AUDIO
    TITLE "2:cjc105_6845"
    INDEX 01 01:00:66
  TRACK 65 AUDIO
    TITLE "3:cjc105_6846"
    INDEX 01 01:02:22
  TRACK 66 AUDIO
    TITLE "0:"
    INDEX 01 01:04:03
  TRACK 67 AUDIO
    TITLE "2:cjc105_6847"
    INDEX 01 01:04:25
  TRACK 68 AUDIO
    TITLE "3:cjc105_6848"
    INDEX 01 01:05:73
  TRACK 69 AUDIO
    TITLE "0:"
    INDEX 01 01:07:51
  TRACK 70 AUDIO
    TITLE "2:cjc105_6849"
    INDEX 01 01:07:74
  TRACK 71 AUDIO
    TITLE "3:cjc105_6850"
    INDEX 01 01:09:32
  TRACK 72 AUDIO
    TITLE "0:"
    INDEX 01 01:10:63
  TRACK 73 AUDIO
    TITLE "2:cjc105_6851"
    INDEX 01 01:11:11
  TRACK 74 AUDIO
    TITLE "3:cjc105_6852"
    INDEX 01 01:12:09
  TRACK 75 AUDIO
    TITLE "0:"
    INDEX 01 01:13:06
  TRACK 76 AUDIO
    TITLE "2:cjc105_6853"
    INDEX 01 01:13:26
  TRACK 77 AUDIO
    TITLE "3:cjc105_6854"
    INDEX 01 01:14:49
  TRACK 78 AUDIO
    TITLE "0:"
    INDEX 01 01:16:03
  TRACK 79 AUDIO
    TITLE "2:cjc105_6855"
    INDEX 01 01:16:24
  TRACK 80 AUDIO
    TITLE "3:cjc105_6856"
    INDEX 01 01:17:51
  TRACK 81 AUDIO
    TITLE "0:"
    INDEX 01 01:18:60
  TRACK 82 AUDIO
    TITLE "2:cjc105_6857"
    INDEX 01 01:19:09
  TRACK 83 AUDIO
    TITLE "3:cjc105_6858"
    INDEX 01 01:20:22
  TRACK 84 AUDIO
    TITLE "0:"
    INDEX 01 01:21:18
  TRACK 85 AUDIO
    TITLE "2:cjc105_6859"
    INDEX 01 01:21:41
  TRACK 86 AUDIO
    TITLE "3:cjc105_6860"
    INDEX 01 01:23:07
  TRACK 87 AUDIO
    TITLE "0:"
    INDEX 01 01:24:49
  TRACK 88 AUDIO
    TITLE "2:cjc105_6861"
    INDEX 01 01:24:65
  TRACK 89 AUDIO
    TITLE "3:cjc105_6862"
    INDEX 01 01:26:52
  TRACK 90 AUDIO
    TITLE "0:"
    INDEX 01 01:28:06
  TRACK 91 AUDIO
    TITLE "2:cjc105_6863"
    INDEX 01 01:28:24
  TRACK 92 AUDIO
    TITLE "3:cjc105_6864"
    INDEX 01 01:29:43
  TRACK 93 AUDIO
    TITLE "0:"
    INDEX 01 01:30:60
  TRACK 94 AUDIO
    TITLE "2:cjc105_6865"
    INDEX 01 01:31:08
  TRACK 95 AUDIO
    TITLE "3:cjc105_6866"
    INDEX 01 01:32:25
  TRACK 96 AUDIO
    TITLE "0:"
    INDEX 01 01:33:36
